<?xml version="1.0" standalone="no"?><!DOCTYPE svg PUBLIC "-//W3C//DTD SVG 1.1//EN" "http://www.w3.org/Graphics/SVG/1.1/DTD/svg11.dtd"><svg t="1596434684370" class="icon" viewBox="0 0 1024 1024" version="1.1" xmlns="http://www.w3.org/2000/svg" p-id="12381" xmlns:xlink="http://www.w3.org/1999/xlink" width="200" height="200"><defs><style type="text/css"></style></defs><path d="M64 358.4 64 160C64 140.8 76.8 128 89.6 128c6.4 0 19.2 6.4 19.2 12.8l115.2 147.2 0 0L224 160C224 140.8 236.8 128 249.6 128c19.2 0 25.6 12.8 25.6 25.6l0 204.8C275.2 377.6 268.8 384 249.6 384 243.2 384 236.8 384 230.4 377.6L115.2 224l0 0 0 134.4C115.2 377.6 108.8 384 89.6 384S64 377.6 64 358.4z" p-id="12382"></path><path d="M307.2 358.4l0-192c0-19.2 6.4-32 25.6-32l89.6 0C441.6 134.4 448 140.8 448 153.6c0 12.8-6.4 25.6-25.6 25.6l-64 0 0 51.2 57.6 0C435.2 230.4 441.6 243.2 448 256c0 12.8-12.8 25.6-25.6 25.6L358.4 281.6l0 51.2 64 0C441.6 332.8 448 345.6 448 358.4 448 377.6 441.6 384 428.8 384L332.8 384C320 384 307.2 377.6 307.2 358.4z" p-id="12383"></path><path d="M505.6 358.4l-44.8-192c0-6.4 0-6.4 0-12.8C460.8 140.8 467.2 128 480 128 499.2 128 505.6 140.8 512 153.6l32 147.2 0 0 44.8-153.6C595.2 140.8 601.6 128 614.4 128c12.8 0 25.6 6.4 25.6 19.2l44.8 153.6 0 0 32-147.2c0-19.2 12.8-25.6 25.6-25.6 12.8 0 25.6 6.4 25.6 25.6 0 6.4 0 6.4 0 12.8l-44.8 192C723.2 377.6 710.4 384 691.2 384c-19.2 0-32-6.4-38.4-25.6L614.4 224 576 358.4C569.6 377.6 556.8 384 537.6 384 518.4 384 512 377.6 505.6 358.4z" p-id="12384"></path><path d="M870.4 128c44.8 0 70.4 12.8 70.4 32 0 19.2-6.4 25.6-25.6 25.6-6.4 0-12.8 0-19.2-6.4-12.8-6.4-19.2-6.4-25.6-6.4-19.2 0-25.6 6.4-32 19.2 0 12.8 12.8 19.2 38.4 25.6C934.4 243.2 960 268.8 960 307.2 953.6 358.4 928 384 870.4 384c-57.6 0-83.2-12.8-83.2-38.4 0-12.8 6.4-25.6 25.6-25.6 6.4 0 12.8 0 25.6 6.4 12.8 6.4 25.6 6.4 32 6.4 25.6 0 32-12.8 38.4-32 0-12.8-12.8-19.2-44.8-32-51.2-12.8-70.4-38.4-70.4-70.4C787.2 160 819.2 134.4 870.4 128z" p-id="12385"></path><path d="M384 576l0 256L128 832 128 576 384 576M384 512 128 512C89.6 512 64 537.6 64 576l0 256c0 38.4 25.6 64 64 64l256 0c38.4 0 64-25.6 64-64L448 576C448 537.6 422.4 512 384 512L384 512z" p-id="12386"></path><path d="M928 608l-320 0C588.8 608 576 595.2 576 576s12.8-32 32-32l320 0C947.2 544 960 556.8 960 576S947.2 608 928 608z" p-id="12387"></path><path d="M928 736l-320 0C588.8 736 576 723.2 576 704s12.8-32 32-32l320 0c19.2 0 32 12.8 32 32S947.2 736 928 736z" p-id="12388"></path><path d="M928 864l-320 0C588.8 864 576 851.2 576 832s12.8-32 32-32l320 0c19.2 0 32 12.8 32 32S947.2 864 928 864z" p-id="12389"></path></svg>