<?xml version="1.0" standalone="no"?><!DOCTYPE svg PUBLIC "-//W3C//DTD SVG 1.1//EN" "http://www.w3.org/Graphics/SVG/1.1/DTD/svg11.dtd"><svg t="1596434680520" class="icon" viewBox="0 0 1025 1024" version="1.1" xmlns="http://www.w3.org/2000/svg" p-id="12252" xmlns:xlink="http://www.w3.org/1999/xlink" width="200.1953125" height="200"><defs><style type="text/css"></style></defs><path d="M928.01216 0l-703.98592 0c-53.02166 0-96.00832 42.945701-96.00832 96.00832l0 63.99872-32.0096 0c-53.02166 0-96.00832 42.945701-96.00832 96.00832l0 639.9872c0 70.695546 57.301894 127.99744 127.99744 127.99744l767.98464 0c70.695546 0 127.99744-57.301894 127.99744-127.99744l0-799.99424c0-53.062619-43.00714-96.00832-96.00832-96.00832zM960.00128 895.98208c0 35.265855-28.732865 63.99872-63.99872 63.99872l-767.98464 0c-35.286334 0-63.99872-28.732865-63.99872-63.99872l0-639.9872c0-17.653407 14.335713-32.0096 32.0096-32.0096l32.0096 0 0 639.9872c0 17.694366 14.294754 32.0096 32.0096 32.0096s32.0096-14.294754 32.0096-32.0096l0-767.98464c0-17.673887 14.335713-32.0096 32.0096-32.0096l703.98592 0c17.632927 0 32.0096 14.335713 32.0096 32.0096l0 799.99424zM623.951681 416.145277c-8.806224 0-15.99456-7.167857-15.99456-15.99456s7.208816-15.99456 15.99456-15.99456l255.99488 0c8.867663 0 15.99456 7.167857 15.99456 15.99456s-7.126897 15.99456-15.99456 15.99456l-255.99488 0zM623.951681 320.157437c-8.806224 0-15.99456-7.167857-15.99456-15.99456s7.208816-15.99456 15.99456-15.99456l255.99488 0c8.867663 0 15.99456 7.167857 15.99456 15.99456s-7.126897 15.99456-15.99456 15.99456l-255.99488 0zM623.951681 224.149117c-8.806224 0-15.99456-7.167857-15.99456-15.99456s7.208816-15.99456 15.99456-15.99456l255.99488 0c8.867663 0 15.99456 7.167857 15.99456 15.99456s-7.126897 15.99456-15.99456 15.99456l-255.99488 0zM528.0048 864.115838c8.826703 0 15.99456 7.208816 15.99456 15.99456 0 8.867663-7.208816 15.99456-15.99456 15.99456l-255.99488 0c-8.826703 0-15.99456-7.126897-15.99456-15.99456 0-8.806224 7.167857-15.99456 15.99456-15.99456l255.99488 0zM528.0048 768.107518c8.826703 0 15.99456 7.208816 15.99456 15.99456 0 8.867663-7.208816 15.99456-15.99456 15.99456l-255.99488 0c-8.826703 0-15.99456-7.126897-15.99456-15.99456 0-8.806224 7.167857-15.99456 15.99456-15.99456l255.99488 0zM528.0048 672.119678c8.826703 0 15.99456 7.208816 15.99456 15.99456 0 8.867663-7.208816 15.99456-15.99456 15.99456l-255.99488 0c-8.826703 0-15.99456-7.126897-15.99456-15.99456 0-8.806224 7.167857-15.99456 15.99456-15.99456l255.99488 0zM880.008 864.115838c8.806224 0 15.99456 7.208816 15.99456 15.99456 0 8.867663-7.208816 15.99456-15.99456 15.99456l-255.99488 0c-8.867663 0-15.99456-7.126897-15.99456-15.99456 0-8.806224 7.126897-15.99456 15.99456-15.99456l255.99488 0zM880.008 768.107518c8.806224 0 15.99456 7.208816 15.99456 15.99456 0 8.867663-7.208816 15.99456-15.99456 15.99456l-255.99488 0c-8.867663 0-15.99456-7.126897-15.99456-15.99456 0-8.806224 7.126897-15.99456 15.99456-15.99456l255.99488 0zM880.008 672.119678c8.806224 0 15.99456 7.208816 15.99456 15.99456 0 8.867663-7.208816 15.99456-15.99456 15.99456l-255.99488 0c-8.867663 0-15.99456-7.126897-15.99456-15.99456 0-8.806224 7.126897-15.99456 15.99456-15.99456l255.99488 0zM880.008 480.123518c8.806224 0 15.99456 7.167857 15.99456 15.99456s-7.208816 15.99456-15.99456 15.99456l-607.99808 0c-8.826703 0-15.99456-7.167857-15.99456-15.99456s7.167857-15.99456 15.99456-15.99456l607.99808 0zM880.008 576.111358c8.806224 0 15.99456 7.208816 15.99456 15.99456 0 8.867663-7.208816 15.99456-15.99456 15.99456l-607.99808 0c-8.826703 0-15.99456-7.126897-15.99456-15.99456 0-8.806224 7.167857-15.99456 15.99456-15.99456l607.99808 0zM288.02496 416.00192l224.00576 0c17.694366 0 32.0096-14.294754 32.0096-32.0096l0-223.862403c0-17.694366-14.294754-32.0096-32.0096-32.0096l-224.00576 0c-17.694366 0-32.0096 14.294754-32.0096 32.0096l0 223.862403c0 17.673887 14.294754 32.0096 32.0096 32.0096zM320.01408 191.99616l160.00704 0 0 160.00704-160.00704 0 0-160.00704z" p-id="12253"></path></svg>